<?xml version="1.0" encoding="utf-8" ?>
<!DOCTYPE svg PUBLIC "-//W3C//DTD SVG 1.1//EN" "http://www.w3.org/Graphics/SVG/1.1/DTD/svg11.dtd">
<svg height="260" version="1.1" width="495" xmlns="http://www.w3.org/2000/svg">
<rect fill="#ffffff" height="69" stroke="#ffffff" stroke-width="1" width="113" x="184" y="14"/>
<rect fill="none" height="69" stroke="#000000" stroke-width="1" width="113" x="184" y="14"/>
<text font-family="Dialog" font-size="12" x="224" y="27">
Objet</text>
<rect fill="#000000" height="1" stroke="#000000" stroke-width="1" width="113" x="184" y="37"/>
<text font-family="Dialog" font-size="12" x="188" y="51">
poids : Integer</text>
<rect fill="#000000" height="1" stroke="#000000" stroke-width="1" width="113" x="184" y="61"/>
<rect fill="#ffffff" height="88" stroke="#ffffff" stroke-width="1" width="144" x="25" y="158"/>
<rect fill="none" height="88" stroke="#000000" stroke-width="1" width="144" x="25" y="158"/>
<text font-family="Dialog" font-size="12" x="68" y="171">
Vaisseau</text>
<rect fill="#000000" height="1" stroke="#000000" stroke-width="1" width="144" x="25" y="181"/>
<text font-family="Dialog" font-size="12" x="29" y="195">
capacite : Integer</text>
<rect fill="#000000" height="1" stroke="#000000" stroke-width="1" width="144" x="25" y="205"/>
<text font-family="Dialog" font-size="12" x="29" y="219">
charger(objet : Objet)</text>
<text font-family="Dialog" font-size="12" x="29" y="235">
equiper(arme : Arme)</text>
<rect fill="#ffffff" height="72" stroke="#ffffff" stroke-width="1" width="152" x="329" y="158"/>
<rect fill="none" height="72" stroke="#000000" stroke-width="1" width="152" x="329" y="158"/>
<text font-family="Dialog" font-size="12" x="389" y="171">
Arme</text>
<rect fill="#000000" height="1" stroke="#000000" stroke-width="1" width="152" x="329" y="181"/>
<text font-family="Dialog" font-size="12" x="333" y="195">
puissance : Integer</text>
<rect fill="#000000" height="1" stroke="#000000" stroke-width="1" width="152" x="329" y="206"/>
<polyline fill="none" points="369,158 369,134 241,134 241,82" stroke="#000000" stroke-width="1"/>
<polygon fill="#ffffff" points="241,82 248,94 234,94" stroke="#ffffff" stroke-width="1"/>
<polygon fill="none" points="241,82 248,94 234,94" stroke="#000000" stroke-width="1"/>
<polyline fill="none" points="329,206 168,206" stroke="#ff6600" stroke-width="1"/>
<text font-family="Dialog" font-size="12" x="226" y="201">
equipe</text>
<text font-family="Dialog" font-size="12" x="299" y="201">
0..*</text>
<text font-family="Dialog" font-size="12" x="289" y="220">
armes</text>
<text font-family="Dialog" font-size="12" x="176" y="199">
0..1</text>
<text font-family="Dialog" font-size="12" x="171" y="221">
vaisseau</text>
<polyline fill="none" points="184,78 57,78 57,158" stroke="#ff6600" stroke-width="1"/>
<text font-family="Dialog" font-size="12" x="52" y="73">
contient</text>
<text font-family="Dialog" font-size="12" x="156" y="71">
0..*</text>
<text font-family="Dialog" font-size="12" x="141" y="95">
objets</text>
<text font-family="Dialog" font-size="12" x="63" y="148">
0..1</text>
<text font-family="Dialog" font-size="12" x="15" y="149">
cargo</text>
<polyline fill="none" points="121,158 121,134 241,134 241,82" stroke="#000000" stroke-width="1"/>
<polygon fill="#ffffff" points="241,82 248,94 234,94" stroke="#ffffff" stroke-width="1"/>
<polygon fill="none" points="241,82 248,94 234,94" stroke="#000000" stroke-width="1"/>
</svg>
