<?xml version="1.0" encoding="utf-8" ?>
<!DOCTYPE svg PUBLIC "-//W3C//DTD SVG 1.1//EN" "http://www.w3.org/Graphics/SVG/1.1/DTD/svg11.dtd">
<svg height="271" version="1.1" width="456" xmlns="http://www.w3.org/2000/svg">
<rect fill="#ffffff" height="91" stroke="#ffffff" stroke-width="1" width="112" x="153" y="14"/>
<rect fill="none" height="91" stroke="#000000" stroke-width="1" width="112" x="153" y="14"/>
<text font-family="Dialog" font-size="12" font-style="italic" x="181" y="46">
Vaisseau</text>
<text font-family="Dialog" font-size="12" x="162" y="28">
&lt;&lt;abstract&gt;&gt;</text>
<rect fill="#000000" height="1" stroke="#000000" stroke-width="1" width="112" x="153" y="56"/>
<text font-family="Dialog" font-size="12" x="157" y="70">
poids : Integer</text>
<rect fill="#000000" height="1" stroke="#000000" stroke-width="1" width="112" x="153" y="80"/>
<text font-family="Dialog" font-size="12" x="157" y="94">
decoller()</text>
<rect fill="#ffffff" height="72" stroke="#ffffff" stroke-width="1" width="158" x="14" y="185"/>
<rect fill="none" height="72" stroke="#000000" stroke-width="1" width="158" x="14" y="185"/>
<text font-family="Dialog" font-size="12" x="46" y="198">
VaisseauCargo</text>
<rect fill="#000000" height="1" stroke="#000000" stroke-width="1" width="158" x="14" y="208"/>
<text font-family="Dialog" font-size="12" x="18" y="222">
capacite : Integer</text>
<rect fill="#000000" height="1" stroke="#000000" stroke-width="1" width="158" x="14" y="232"/>
<text font-family="Dialog" font-size="12" x="18" y="246">
charger(poids : Integer)</text>
<rect fill="#ffffff" height="69" stroke="#ffffff" stroke-width="1" width="190" x="252" y="185"/>
<rect fill="none" height="69" stroke="#000000" stroke-width="1" width="190" x="252" y="185"/>
<text font-family="Dialog" font-size="12" x="294" y="198">
VaisseauCombat</text>
<rect fill="#000000" height="1" stroke="#000000" stroke-width="1" width="190" x="252" y="208"/>
<rect fill="#000000" height="1" stroke="#000000" stroke-width="1" width="190" x="252" y="229"/>
<text font-family="Dialog" font-size="12" x="256" y="243">
attaquer(vaiseau : Vaisseau)</text>
<polyline fill="none" points="91,185 91,157 207,157 207,104" stroke="#000000" stroke-width="1"/>
<polygon fill="#ffffff" points="207,104 214,116 200,116" stroke="#ffffff" stroke-width="1"/>
<polygon fill="none" points="207,104 214,116 200,116" stroke="#000000" stroke-width="1"/>
<polyline fill="none" points="326,185 326,157 207,157 207,104" stroke="#000000" stroke-width="1"/>
<polygon fill="#ffffff" points="207,104 214,116 200,116" stroke="#ffffff" stroke-width="1"/>
<polygon fill="none" points="207,104 214,116 200,116" stroke="#000000" stroke-width="1"/>
</svg>
